<svg width="330" height="328" fill="none" xmlns="http://www.w3.org/2000/svg" class="logo"><path d="m276.212 182.797-10.625 66.836 63.211 24.244-.009-60.731-52.577-30.349Z" fill="#A299FF"/><path d="M.814 243.506V84.496l52.602 16.679v111.961l85.107 49.135 6.358 24.24-6.358 36.497L.814 243.506Z" fill="#7366FF"/><path d="m138.536 65.737-85.12 49.126L.815 84.496 138.504 5l137.709 79.496-29.055 23.148-23.515 7.228-85.107-49.135Z" fill="#7366FF"/><path d="m328.814 273.854-52.601 30.389-52.57-30.389v-60.715l105.171 60.715Z" fill="#5219FF"/><path d="m138.536 103.424-.032 60.721 52.617 30.358-.009-60.731-52.576-30.348Z" fill="#A299FF"/><path d="m138.504 164.146-52.582 30.357 52.592 30.374 52.608-30.374-52.618-30.357Z" fill="#5219FF"/><path d="m138.536 103.424-52.608 30.373-.006 60.706 52.582-30.358.032-60.721Z" fill="#7366FF"/><path d="M276.213 84.496v98.301l-52.57 30.342v-98.267l52.57-30.376Z" fill="url(#a)"/><path d="m276.228 182.766-137.705 79.505v60.737l137.689-79.511.016-60.731Z" fill="url(#b)"/><defs><linearGradient id="a" x1="249.928" y1="84.495" x2="249.928" y2="213.14" gradientUnits="userSpaceOnUse"><stop offset=".25" stop-color="#7366FF"/><stop offset="1" stop-color="#5219FF"/></linearGradient><linearGradient id="b" x1="138.521" y1="252.888" x2="276.227" y2="252.888" gradientUnits="userSpaceOnUse"><stop stop-color="#7366FF"/><stop offset="1" stop-color="#A299FF"/></linearGradient></defs></svg>